<svg t="1714738052422" class="icon" viewBox="0 0 1024 1024" version="1.1" xmlns="http://www.w3.org/2000/svg" p-id="9696" width="200" height="200"><path d="M493.4 184c-35.4 39.5-70.8 81.9-103.8 125.4-36 47.5-66.8 93.3-90.9 136.4-35.9 64.1-55 119-55 160.4 0 157.9 122 267.8 267.8 267.8s267.8-110 267.8-267.9c0-41.4-19.1-96.3-55-160.4-24.1-43-54.9-88.9-90.9-136.4-33-43.5-68.4-85.9-103.8-125.4-6.3-7-12.3-13.6-18-19.9-5.9 6.4-11.9 13-18.2 20zM162.8 606.1c0-58 23.3-124.8 65.3-199.9 26.1-46.6 58.9-95.5 97-145.8 34.4-45.4 71.3-89.5 108.1-130.5 12.9-14.4 24.9-27.3 35.7-38.7 6.5-6.9 11.2-11.8 13.8-14.4 15.8-16 41.7-16 57.6 0 2.6 2.6 7.3 7.5 13.8 14.4 10.8 11.4 22.8 24.4 35.7 38.7 36.8 41 73.6 85.1 108.1 130.5 38.1 50.2 70.9 99.1 97 145.8 42 75.1 65.3 141.9 65.3 199.9 0 204.5-160 348.7-348.7 348.7S162.8 810.7 162.8 606.1z" fill="#FFFFFF" p-id="9697"></path><path d="M511.5 681.2c22.3 0 40.5 18.1 40.5 40.5 0 22.3-18.1 40.5-40.5 40.5-76.4 0-156-55.2-156-156 0-22.3 18.1-40.5 40.5-40.5s40.5 18.1 40.5 40.5c-0.1 48.4 38.3 75 75 75z" fill="#FFFFFF" p-id="9698"></path></svg>