<svg t="1714738293653" class="icon" viewBox="0 0 1024 1024" version="1.1" xmlns="http://www.w3.org/2000/svg" p-id="19727" width="200" height="200"><path d="M480.711111 720.554667a38.286222 38.286222 0 0 1 18.033778-4.608H115.427556a38.513778 38.513778 0 1 1 0-77.027556h99.384888a308.622222 308.622222 0 0 1 99.043556-360.448 307.655111 307.655111 0 0 1 373.361778 0 308.622222 308.622222 0 0 1 98.986666 360.448h99.441778a38.513778 38.513778 0 1 1 0 77.027556H499.313778c6.371556 0 12.515556 1.649778 18.033778 4.608H480.711111z m220.16-81.578667a231.139556 231.139556 0 0 0 17.009778-194.275556 230.684444 230.684444 0 0 0-137.500445-138.012444A230.627556 230.627556 0 0 0 324.835556 373.589333a231.424 231.424 0 0 0-25.6 263.281778l-3.640889 2.048h405.219555z m184.888889-77.084444a38.513778 38.513778 0 0 1 0-77.027556h77.027556a38.513778 38.513778 0 0 1 0 77.027556H885.76z m-847.246222 0a38.513778 38.513778 0 0 1 0-77.027556H115.484444a38.513778 38.513778 0 0 1 0 77.027556H38.513778z m707.185778-283.534223a38.513778 38.513778 0 0 1 0-54.499555l54.499555-54.385778a38.456889 38.456889 0 0 1 54.442667 54.385778l-54.442667 54.499555a38.513778 38.513778 0 0 1-54.499555 0z m-544.597334 0l-54.499555-54.499555a38.456889 38.456889 0 1 1 54.442666-54.442667l54.499556 54.442667a38.570667 38.570667 0 0 1-0.170667 54.442666 38.456889 38.456889 0 0 1-54.328889 0.056889h0.056889z m261.006222-140.060444V61.326222a38.513778 38.513778 0 1 1 77.027556 0V138.24a38.513778 38.513778 0 1 1-77.027556 0zM529.692444 1024H493.226667a38.456889 38.456889 0 0 1-8.590223-6.371556l-78.620444-77.027555a38.570667 38.570667 0 0 1 53.930667-54.954667l11.548444 11.377778v-137.841778a38.513778 38.513778 0 1 1 77.027556 0l-0.113778-0.113778v138.353778l11.036444-11.264a38.456889 38.456889 0 0 1 65.080889 16.270222 38.684444 38.684444 0 0 1-10.069333 37.660445l-75.491556 76.970667A38.286222 38.286222 0 0 1 529.635556 1024z" fill="#FFFFFF" p-id="19728"></path></svg>