<svg t="1714738190146" class="icon" viewBox="0 0 1024 1024" version="1.1" xmlns="http://www.w3.org/2000/svg" p-id="13955" width="200" height="200"><path d="M275.2 729.6a32 32 0 1 1 0-64h500.48l1.4592 0.3072a11.136 11.136 0 0 1 0.256 0.0768C841.28 671.232 896 729.5232 896 806.4c0 67.8272-60.1728 128-128 128-24.064 0-38.4-14.336-38.4-25.6 0-23.36 13.2096-37.248 25.6-38.4h12.8c32.4864 0 64-31.5136 64-64 0-45.2864-31.5136-76.8-64-76.8H275.2z m422.4-256a32 32 0 1 1 0 64h-588.8a32 32 0 1 1 0-64h588.8zM768 76.8c67.8272 0 128 60.1728 128 140.8 0 67.8272-60.1728 128-128 128H224a32 32 0 1 1 0-64H768c32.4864 0 64-31.5136 64-64 0-45.2864-31.5136-76.8-64-76.8-24.064 0-38.4-14.336-38.4-25.6 0-24.064 14.336-38.4 38.4-38.4z" fill="#FFFFFF" p-id="13956"></path></svg>